<?xml version="1.0" encoding="UTF-8"?>
<svg id="_レイヤー_1" data-name="レイヤー_1" xmlns="http://www.w3.org/2000/svg" version="1.1" viewBox="0 0 24 24">
  <!-- Generator: Adobe Illustrator 29.4.0, SVG Export Plug-In . SVG Version: 2.1.0 Build 152)  -->
  <rect width="24" height="24" fill="none"/>
  <path d="M21.5293579,1.539978H2.4906616c-.8088989,0-1.4706421.6618042-1.4706421,1.4706421v14.4587402c0,.8088379.6617432,1.4706421,1.4706421,1.4706421h10.4473267c.0527344,0,.1035767.0197754.1424561.0554199l3.699585,3.3945923c.1199951.1199951.289978.1799927.4599609.1799927.0900269,0,.1900024-.0200195.2800293-.0599976.2399902-.1099854.4099731-.3500366.4099731-.6199951l.0465088-2.7429199c.0019531-.1149292.0956421-.2070923.2105713-.2070923h3.5529175c.7000122,0,1.2600098-.5700073,1.2600098-1.2600098V3.0106201c0-.8121948-.6584473-1.4706421-1.4706421-1.4706421ZM2.5151367,17.2359009V3.2445679c0-.1156616.09375-.2094116.2094116-.2094116h18.5611572c.1156616,0,.2094116.09375.2094116.2094116v13.991333c0,.1156616-.09375.2094116-.2094116.2094116h-3.7765503c-.5599976,0-1.0169678.4482422-1.027771,1.0081177l-.0222168,1.1522827c-.003479.1803589-.2182617.2722168-.3511353.1501465l-2.2789307-2.0947266c-.1376953-.1367188-.3378906-.2158203-.5488281-.2158203H2.7245483c-.1156616,0-.2094116-.09375-.2094116-.2094116Z" fill="#9f9f9f"/>
  <path d="M21.2857056,3.0351562H2.7245483c-.1156616,0-.2094116.09375-.2094116.2094116v13.991333c0,.1156616.09375.2094116.2094116.2094116h10.5557251c.2109375,0,.4111328.0791016.5488281.2158203l2.2789307,2.0947266c.1328735.1220703.3476562.0302124.3511353-.1501465l.0222168-1.1522827c.0108032-.5598755.4677734-1.0081177,1.027771-1.0081177h3.7765503c.1156616,0,.2094116-.09375.2094116-.2094116V3.2445679c0-.1156616-.09375-.2094116-.2094116-.2094116Z" fill="none"/>
</svg>