<?xml version="1.0" encoding="utf-8"?>
<!-- Generator: Adobe Illustrator 27.5.0, SVG Export Plug-In . SVG Version: 6.00 Build 0)  -->
<svg version="1.1" id="レイヤー_1" xmlns="http://www.w3.org/2000/svg" xmlns:xlink="http://www.w3.org/1999/xlink" x="0px"
	 y="0px" viewBox="0 0 24 24" enable-background="new 0 0 24 24" xml:space="preserve">
<rect x="4.79" y="4.83" fill="none" width="14.38" height="14.38"/>
<rect x="-0.02" y="0.02" fill="none" width="24" height="24"/>
<g>
	<path fill="#9F9F9F" d="M1.94,9.75v4.85c0,0.36,0.3,0.66,0.66,0.66h2.77c0.52,0,1.03,0.17,1.44,0.5l3.75,2.93
		c0.37,0.28,0.9,0.02,0.9-0.44V6.1c0-0.46-0.53-0.72-0.9-0.44L6.82,8.59C6.4,8.91,5.9,9.09,5.37,9.09H2.6
		C2.24,9.09,1.94,9.39,1.94,9.75z"/>
	<path fill="#9F9F9F" d="M17.62,21.24c0.09,0.15,0.23,0.25,0.4,0.28c0.17,0.04,0.34,0,0.48-0.09c1.23-0.84,2.27-2.13,3.01-3.72
		c0.77-1.65,1.16-3.56,1.16-5.52c0-1.98-0.41-3.89-1.18-5.54c-0.74-1.6-1.8-2.89-3.04-3.72c-0.14-0.09-0.31-0.13-0.48-0.09
		c-0.15,0.02-0.29,0.12-0.38,0.27l-0.35,0.55c-0.18,0.29-0.1,0.66,0.18,0.85c0.98,0.66,1.82,1.73,2.42,3.08
		c0.62,1.38,0.94,2.98,0.94,4.61c0,1.62-0.32,3.2-0.93,4.58c-0.59,1.35-1.42,2.42-2.39,3.08c-0.27,0.19-0.36,0.56-0.18,0.84
		L17.62,21.24z"/>
	<path fill="#9F9F9F" d="M15.14,17.23c0.1,0.17,0.28,0.27,0.48,0.3c0.2,0.02,0.39-0.05,0.52-0.21C17.32,16,18,14.12,18,12.18
		c0-2-0.71-3.9-1.94-5.23c-0.13-0.14-0.31-0.21-0.51-0.2c-0.2,0.02-0.37,0.12-0.48,0.29l-0.34,0.55c-0.15,0.23-0.12,0.53,0.05,0.74
		c0.84,0.99,1.31,2.4,1.31,3.85c0,1.41-0.46,2.8-1.26,3.79c-0.16,0.2-0.18,0.49-0.04,0.71L15.14,17.23z"/>
</g>
</svg>
