<?xml version="1.0" encoding="utf-8"?><svg version="1.1" id="Layer_1" xmlns="http://www.w3.org/2000/svg" xmlns:xlink="http://www.w3.org/1999/xlink" x="0px" y="0px" viewBox="0 0 122.88 122.88" style="enable-background:new 0 0 122.88 122.88" xml:space="preserve"><style type="text/css">.st0{fill-rule:evenodd;clip-rule:evenodd;}</style><g><path class="st0" d="M101.59,14.7l8.82,8.82c2.32,2.32,2.32,6.12,0,8.44l-7.1,7.1c1.96,3.66,3.45,7.6,4.41,11.75h9.2 c3.28,0,5.97,2.69,5.97,5.97v12.47c0,3.28-2.69,5.97-5.97,5.97h-10.04c-1.23,4.06-2.99,7.9-5.2,11.42l6.51,6.51 c2.32,2.32,2.32,6.12,0,8.44l-8.82,8.82c-2.32,2.32-6.12,2.32-8.44,0l-7.1-7.1c-3.66,1.96-7.6,3.46-11.75,4.41v9.2 c0,3.28-2.69,5.97-5.97,5.97H53.63c-3.28,0-5.97-2.69-5.97-5.97v-10.04c-4.06-1.23-7.9-2.99-11.42-5.21l-6.51,6.51 c-2.32,2.32-6.12,2.32-8.44,0l-8.82-8.82c-2.32-2.32-2.32-6.12,0-8.44l7.1-7.1c-1.96-3.66-3.46-7.6-4.41-11.75h-9.2 C2.69,72.07,0,69.38,0,66.1V53.63c0-3.28,2.69-5.97,5.97-5.97h10.04c1.23-4.06,2.99-7.9,5.2-11.42l-6.51-6.51 c-2.32-2.32-2.32-6.12,0-8.44l8.82-8.82c2.32-2.32,6.12-2.32,8.44,0l7.1,7.1c3.66-1.96,7.6-3.46,11.75-4.41v-9.2 C50.81,2.69,53.5,0,56.78,0h12.47c3.28,0,5.97,2.69,5.97,5.97V16c4.06,1.23,7.9,2.99,11.42,5.2l6.51-6.51 C95.47,12.38,99.27,12.38,101.59,14.7L101.59,14.7L101.59,14.7z M61.44,33.39c15.49,0,28.04,12.56,28.04,28.04 c0,15.48-12.56,28.04-28.04,28.04c-15.49,0-28.04-12.56-28.04-28.04C33.4,45.95,45.95,33.39,61.44,33.39L61.44,33.39L61.44,33.39z M61.44,47.81c7.52,0,13.62,6.1,13.62,13.62c0,7.52-6.1,13.62-13.62,13.62c-7.52,0-13.62-6.1-13.62-13.62 C47.82,53.92,53.92,47.81,61.44,47.81L61.44,47.81L61.44,47.81z M61.44,26.56c19.26,0,34.88,15.62,34.88,34.88 c0,19.26-15.62,34.88-34.88,34.88c-19.26,0-34.88-15.62-34.88-34.88C26.56,42.18,42.18,26.56,61.44,26.56L61.44,26.56L61.44,26.56z"/></g></svg>